:FULLY-SPECIFIED
:FORCE-ALL-JOINTS-BE-3DOF
:DEGREES
1529
root -5.59688 15.5916 20.664 -171.018 -19.2157 178.589
lfemur -48.1685 9.45289 -26.9582
ltibia 86.4587 -0 0
lfoot -11.2952 18.6273 0.0735818
ltoes -26.8961 0 0
rfemur -44.596 -2.21614 16.7261
rtibia 70.9523 -0 0
rfoot -18.8859 -7.76291 -0.0488674
rtoes -23.7026 0 0
lowerback 19.4369 0.543506 2.32976
upperback -1.18989 1.81407 3.11968
thorax -12.1709 0.877198 1.56268
lowerneck -3.59674 7.57497 3.19606
upperneck 3.96583 10.7119 -9.98352
head 2.57352 5.21882 -3.06841
lclavicle -1.92821e-14 7.95139e-15 0
lhumerus 56.7016 -62.109 48.163
lradius 111.758 -0 0
lwrist 14.8767 0 0
lhand -23.1175 39.2731 -0.000275512
lfingers 7.12502 -0 0
lthumb 3.32965 69.2271 -0.000263797
rclavicle -1.92821e-14 7.95139e-15 0
rhumerus -49.9295 45.1292 -89.7914
rradius 114.97 -0 0
rwrist -45.5605 0 0
rhand 8.69143 -31.6454 0.227968
rfingers 7.12502 -0 0
rthumb 33.9084 -58.721 0.165106
1530
root -5.61381 15.6086 20.716 -170.828 -22.4632 178.166
lfemur -47.7945 9.55471 -26.9758
ltibia 85.7485 -0 0
lfoot -11.4776 18.4529 0.0779731
ltoes -27.2941 0 0
rfemur -44.7248 -2.55222 16.7284
rtibia 71.6274 -0 0
rfoot -18.7599 -7.89385 -0.0545914
rtoes -23.3819 0 0
lowerback 19.3743 0.500723 2.05817
upperback -1.17895 1.68734 3.13056
thorax -12.1119 0.83378 1.76485
lowerneck -3.6337 7.33015 3.00926
upperneck 3.96439 10.3742 -9.78117
head 2.55586 5.05077 -2.99208
lclavicle -1.92821e-14 7.95139e-15 0
lhumerus 54.4958 -61.2717 50.0756
lradius 110.07 -0 0
lwrist 14.3715 0 0
lhand -23.1222 39.0945 -0.000332384
lfingers 7.12502 -0 0
lthumb 3.32514 69.0486 -0.000318562
rclavicle -1.92821e-14 7.95139e-15 0
rhumerus -50.8265 44.5097 -90.7322
rradius 115.582 -0 0
rwrist -45.975 0 0
rhand 9.02776 -31.4233 0.238792
rfingers 7.12502 -0 0
rthumb 34.2298 -58.4485 0.171349
1531
root -5.62725 15.624 20.7591 -170.61 -25.7024 177.712
lfemur -47.3644 9.65961 -26.9744
ltibia 84.9705 -0 0
lfoot -11.6677 18.2805 0.0817429
ltoes -27.7101 0 0
rfemur -44.8744 -2.90863 16.7251
rtibia 72.3269 -0 0
rfoot -18.6224 -8.02971 -0.0601999
rtoes -23.0329 0 0
lowerback 19.3084 0.457576 1.77198
upperback -1.16778 1.55642 3.139
thorax -12.0505 0.788921 1.97389
lowerneck -3.67373 7.06877 2.80928
upperneck 3.96346 10.0138 -9.56325
head 2.53792 4.87153 -2.90975
lclavicle -1.92821e-14 7.95139e-15 0
lhumerus 52.2273 -60.3777 52.0031
lradius 108.317 -0 0
lwrist 13.8731 0 0
lhand -23.1267 38.9124 -0.000395538
lfingers 7.12502 -0 0
lthumb 3.32078 68.8665 -0.000379404
rclavicle -1.92821e-14 7.95139e-15 0
rhumerus -51.6392 43.8792 -91.6124
rradius 116.187 -0 0
rwrist -46.3646 0 0
rhand 9.35312 -31.1905 0.247539
rfingers 7.12502 -0 0
rthumb 34.5406 -58.1654 0.175768
1532
root -5.63794 15.6377 20.7938 -170.36 -28.925 177.222
lfemur -46.8805 9.76707 -26.9542
ltibia 84.1281 -0 0
lfoot -11.8648 18.1103 0.08486
ltoes -28.1428 0 0
rfemur -45.0439 -3.28404 16.7168
rtibia 73.0485 -0 0
rfoot -18.4739 -8.17002 -0.065618
rtoes -22.657 0 0
lowerback 19.2394 0.41413 1.47222
upperback -1.15639 1.42174 3.14503
thorax -11.987 0.742739 2.18911
lowerneck -3.71648 6.79181 2.59697
upperneck 3.96273 9.63237 -9.33068
head 2.51967 4.6818 -2.82175
lclavicle -1.92821e-14 7.95139e-15 0
lhumerus 49.9175 -59.4251 53.9255
lradius 106.505 -0 0
lwrist 13.3827 0 0
lhand -23.131 38.7274 -0.000464582
lfingers 7.12502 -0 0
lthumb 3.31659 68.6816 -0.000445947
rclavicle -1.92821e-14 7.95139e-15 0
rhumerus -52.3692 43.2412 -92.4328
rradius 116.785 -0 0
rwrist -46.7289 0 0
rhand 9.66689 -30.9477 0.254181
rfingers 7.12502 -0 0
rthumb 34.8401 -57.8729 0.178355
1533
root -5.64662 15.6497 20.8206 -170.074 -32.1223 176.692
lfemur -46.3448 9.87648 -26.9154
ltibia 83.2249 -0 0
lfoot -12.0683 17.9429 0.0873008
ltoes -28.5906 0 0
rfemur -45.2324 -3.67715 16.7038
rtibia 73.7898 -0 0
rfoot -18.3152 -8.31434 -0.0707732
rtoes -22.2558 0 0
lowerback 19.1676 0.37045 1.15994
upperback -1.14482 1.28371 3.14868
thorax -11.9216 0.695355 2.40981
lowerneck -3.76159 6.50026 2.37318
upperneck 3.9619 9.23115 -9.08439
head 2.50113 4.48228 -2.72842
lclavicle -1.92821e-14 7.95139e-15 0
lhumerus 47.5852 -58.4129 55.8252
lradius 104.639 -0 0
lwrist 12.9014 0 0
lhand -23.1352 38.5399 -0.000538963
lfingers 7.12502 -0 0
lthumb 3.31256 68.4942 -0.000517656
rclavicle -1.92821e-14 7.95139e-15 0
rhumerus -53.0182 42.5993 -93.1949
rradius 117.374 -0 0
rwrist -47.0673 0 0
rhand 9.96846 -30.6958 0.258713
rfingers 7.12502 -0 0
rthumb 35.1278 -57.5718 0.179129
1534
root -5.65401 15.6603 20.84 -169.745 -35.2857 176.119
lfemur -45.7596 9.98721 -26.8583
ltibia 82.2641 -0 0
lfoot -12.2775 17.7786 0.0890491
ltoes -29.052 0 0
rfemur -45.4391 -4.08663 16.6865
rtibia 74.5485 -0 0
rfoot -18.1467 -8.46221 -0.0755964
rtoes -21.8307 0 0
lowerback 19.0933 0.326607 0.836195
upperback -1.1331 1.14278 3.14997
thorax -11.8545 0.646893 2.63532
lowerneck -3.80871 6.19511 2.13875
upperneck 3.96069 8.81157 -8.82531
head 2.48228 4.27367 -2.63009
lclavicle -1.92821e-14 7.95139e-15 0
lhumerus 45.247 -57.3413 57.6871
lradius 102.726 -0 0
lwrist 12.4303 0 0
lhand -23.1392 38.3506 -0.00061797
lfingers 7.12502 -0 0
lthumb 3.30871 68.3049 -0.000593845
rclavicle -1.92821e-14 7.95139e-15 0
rhumerus -53.5881 41.9568 -93.9
rradius 117.952 -0 0
rwrist -47.3794 0 0
rhand 10.2572 -30.4356 0.26115
rfingers 7.12502 -0 0
rthumb 35.4031 -57.2631 0.178124
1535
root -5.66086 15.6692 20.8525 -169.368 -38.4065 175.495
lfemur -45.1272 10.0986 -26.783
ltibia 81.2491 -0 0
lfoot -12.4917 17.6178 0.0900967
ltoes -29.5257 0 0
rfemur -45.6632 -4.51116 16.6653
rtibia 75.3223 -0 0
rfoot -17.969 -8.61318 -0.0800223
rtoes -21.3833 0 0
lowerback 19.0166 0.282676 0.502028
upperback -1.12124 0.999363 3.14893
thorax -11.7859 0.597479 2.86495
lowerneck -3.8575 5.87736 1.89451
upperneck 3.95883 8.37504 -8.55435
head 2.46315 4.05666 -2.5271
lclavicle -1.92821e-14 7.95139e-15 0
lhumerus 42.917 -56.2111 59.4981
lradius 100.772 -0 0
lwrist 11.9707 0 0
lhand -23.143 38.16 -0.00070074
lfingers 7.12502 -0 0
lthumb 3.30505 68.1143 -0.000673681
rclavicle -1.92821e-14 7.95139e-15 0
rhumerus -54.0808 41.3169 -94.5494
rradius 118.519 -0 0
rwrist -47.6646 0 0
rhand 10.5324 -30.1681 0.261527
rfingers 7.12502 -0 0
rthumb 35.6654 -56.9478 0.175401
1536
root -5.6679 15.6767 20.8585 -168.937 -41.4758 174.816
lfemur -44.4496 10.2099 -26.6898
ltibia 80.1836 -0 0
lfoot -12.7103 17.4609 0.0904427
ltoes -30.0102 0 0
rfemur -45.9039 -4.94945 16.6406
rtibia 76.1089 -0 0
rfoot -17.7829 -8.76679 -0.0839897
rtoes -20.915 0 0
lowerback 18.9379 0.238736 0.158485
upperback -1.10927 0.853886 3.14558
thorax -11.716 0.547242 3.098
lowerneck -3.90763 5.54799 1.64131
upperneck 3.95606 7.92295 -8.27243
head 2.44372 3.83197 -2.41978
lclavicle -1.92821e-14 7.95139e-15 0
lhumerus 40.607 -55.024 61.248
lradius 98.7818 -0 0
lwrist 11.5236 0 0
lhand -23.1466 37.9686 -0.000786268
lfingers 7.12502 -0 0
lthumb 3.30158 67.9229 -0.000756195
rclavicle -1.92821e-14 7.95139e-15 0
rhumerus -54.4983 40.6828 -95.1446
rradius 119.072 -0 0
rwrist -47.9225 0 0
rhand 10.7936 -29.8939 0.259897
rfingers 7.12502 -0 0
rthumb 35.9141 -56.6268 0.171036
1537
root -5.67586 15.6827 20.8586 -168.444 -44.4847 174.074
lfemur -43.7291 10.3205 -26.5789
ltibia 79.0707 -0 0
lfoot -12.9327 17.3084 0.090094
ltoes -30.5041 0 0
rfemur -46.1602 -5.40017 16.6128
rtibia 76.906 -0 0
rfoot -17.5887 -8.9226 -0.0874425
rtoes -20.4273 0 0
lowerback 18.8574 0.194869 -0.193387
upperback -1.09722 0.706779 3.13996
thorax -11.6451 0.496315 3.3338
lowerneck -3.9588 5.20801 1.37997
upperneck 3.95214 7.45672 -7.98043
head 2.424 3.60028 -2.30846
lclavicle -1.92821e-14 7.95139e-15 0
lhumerus 38.3262 -53.7826 62.9284
lradius 96.7619 -0 0
lwrist 11.0902 0 0
lhand -23.15 37.7769 -0.000873415
lfingers 7.12502 -0 0
lthumb 3.29832 67.7313 -0.000840288
rclavicle -1.92821e-14 7.95139e-15 0
rhumerus -54.8423 40.0572 -95.6869
rradius 119.611 -0 0
rwrist -48.1525 0 0
rhand 11.0401 -29.6141 0.256331
rfingers 7.12502 -0 0
rthumb 36.1486 -56.3012 0.165125
1538
root -5.68549 15.6873 20.8533 -167.878 -47.4244 173.259
lfemur -42.9679 10.4295 -26.4506
ltibia 77.914 -0 0
lfoot -13.1582 17.1606 0.0890649
ltoes -31.0058 0 0
rfemur -46.4314 -5.86201 16.5822
rtibia 77.7112 -0 0
rfoot -17.3872 -9.08014 -0.0903299
rtoes -19.9217 0 0
lowerback 18.7753 0.151165 -0.552543
upperback -1.08512 0.558466 3.13209
thorax -11.5734 0.444835 3.57165
lowerneck -4.0107 4.85842 1.1113
upperneck 3.94685 6.97774 -7.67925
head 2.40402 3.36229 -2.19348
lclavicle -1.92821e-14 7.95139e-15 0
lhumerus 36.0821 -52.49 64.5331
lradius 94.7181 -0 0
lwrist 10.6716 0 0
lhand -23.1531 37.5855 -0.000960917
lfingers 7.12502 -0 0
lthumb 3.29526 67.54 -0.00092474
rclavicle -1.92821e-14 7.95139e-15 0
rhumerus -55.1148 39.443 -96.1775
rradius 120.133 -0 0
rwrist -48.3542 0 0
rhand 11.2712 -29.3293 0.250919
rfingers 7.12502 -0 0
rthumb 36.3683 -55.9717 0.157785
